<?xml version="1.0" encoding="UTF-8"?><svg id="Ebene_2" xmlns="http://www.w3.org/2000/svg" viewBox="0 0 256 256"><defs><style>.cls-1{fill:none;}.cls-2{fill:#051c2c;}.cls-3{fill:#fff;}.cls-4{fill:#ef2ac1;}</style></defs><g id="Layer_1"><rect class="cls-2" y="0" width="256" height="256" rx="35" ry="35"/><path class="cls-3" d="M120.1,119.67v46.92c0,.81-.65,1.46-1.46,1.46h-4.08c-.55,0-1.05-.31-1.3-.8l-6.09-11.93c-.1-.21-.16-.43-.16-.66v-25.06c0-.39,.16-.77,.44-1.05l10.16-9.92c.93-.9,2.48-.25,2.48,1.05"/><path class="cls-4" d="M120.1,103.97v1.1c0,.39-.16,.77-.44,1.05l-8.54,8.34-1.62,1.58c-.93,.9-2.48,.25-2.48-1.05v-11.02c0-.81,.65-1.46,1.46-1.46h10.16c.81,0,1.46,.65,1.46,1.46"/><path class="cls-3" d="M206.25,114.19c-3.51,0-5.89-1.51-7.54-3.84-.14-.2-.12-.47,.03-.66l1.59-1.86c.22-.25,.61-.25,.82,0,1.15,1.39,2.65,2.47,4.87,2.47,2.52,0,4.68-1.51,4.68-4.68,0-2.55-2.13-4.29-4.49-4.29-1.04,0-1.87,.28-2.35,.5-.22,.1-.49,.03-.64-.16l-.9-1.14c-.15-.19-.15-.46,0-.66l5.47-7.12c.27-.35,.02-.86-.43-.86h-7.7c-.3,0-.54-.24-.54-.54v-2.87c0-.3,.24-.54,.54-.54h14.41c.3,0,.54,.24,.54,.54v.71c0,.12-.04,.23-.11,.33l-5.79,7.54c-.24,.31-.08,.75,.3,.85,3.95,.99,5.99,4.17,5.99,7.73,0,4.95-3.87,8.55-8.75,8.55"/><path class="cls-3" d="M152.67,130.7l-7.19,7.19c-.57,.57-1.5,.57-2.07,0l-3.35-3.35c-.92-.92-2.5-.27-2.5,1.03v30.98c0,.81-.65,1.46-1.46,1.46h-10.16c-.81,0-1.46-.65-1.46-1.46v-62.58c0-1.3,1.57-1.96,2.5-1.03l25.69,25.69c.57,.57,.57,1.5,0,2.07"/><path class="cls-3" d="M151.41,145.89l7.19,7.19c.57,.57,1.5,.57,2.07,0l18.54-18.54c.92-.92,2.5-.27,2.5,1.03v30.98c0,.81,.65,1.46,1.46,1.46h10.16c.81,0,1.46-.65,1.46-1.46v-62.58c0-1.3-1.57-1.96-2.5-1.04l-40.88,40.88c-.57,.57-.57,1.5,0,2.07"/><path class="cls-3" d="M41.16,165.92l32.16-62.61c.54-1.06,2.06-1.06,2.61,0l32.16,62.61c.5,.97-.21,2.13-1.3,2.13h-33.35c-1.06,0-1.77-1.09-1.34-2.06l3.55-7.92c.24-.53,.76-.86,1.33-.86h10.43c1.05,0,1.76-1.08,1.34-2.05l-12.8-29.27c-.51-1.16-2.15-1.17-2.67-.02l-18.83,41.33c-.24,.52-.76,.86-1.33,.86h-10.67c-1.09,0-1.8-1.15-1.3-2.13"/><rect class="cls-1" width="256" height="256"/></g></svg>